<svg id="Layer_1" data-name="Layer 1" xmlns="http://www.w3.org/2000/svg" viewBox="0 0 200 200"><defs><style>.cls-1{font-size:51.54px;font-family:Baskerville-Bold, Baskerville;font-weight:700;}</style></defs><g id="uFjq4S.tif"><path d="M18,100.4c.26-5.24,0-10.56.88-15.69,1.22-7.36,5.78-13,11.33-17.74C40.06,58.56,51.63,53.62,64,50.53c28.63-7.16,57-6.45,84.84,3.86,10.38,3.84,19.85,9.27,27.08,18a28,28,0,0,1,6.76,18.92c-.11,5.93-.22,11.88,0,17.81.29,8.8-3.08,16-9.11,22.13-8.33,8.44-18.68,13.48-29.76,17.15-18.11,6-36.73,7.58-55.66,6.1C73,153.29,58.38,150,44.65,143.32c-7.52-3.66-14.37-8.26-19.72-14.83a27.59,27.59,0,0,1-6.65-18.71c.09-3.12,0-6.24,0-9.37Zm86.31,28.81c4.07-.4,11.9-.88,19.64-2a98.54,98.54,0,0,0,35.53-11.68,43.55,43.55,0,0,0,14.91-13.23c5.51-8.14,5.63-17.69-.14-25.59a47.29,47.29,0,0,0-8.66-9c-8.54-6.8-18.59-10.6-29-13.33a143.23,143.23,0,0,0-45-4.21c-13.92.82-27.46,3.32-40.4,8.58-8.55,3.46-16.42,8-22.54,15.11-8,9.33-8.41,20.45-.94,30.26,5.27,6.92,12.39,11.41,20.18,14.9C64.65,126.57,82.43,128.93,104.35,129.21Z"/><path d="M37,89.56c.4-7.2,3.55-12.09,8.17-16.13C53,66.58,62.49,63.15,72.4,60.71a125.26,125.26,0,0,1,26.67-3.16c.46,0,1.07-.18,1.34.05.77.66,1.77,1.42,1.94,2.29.1.49-1.22,1.73-2,1.82-3,.33-5.93.26-8.89.47-12.44.91-24.65,2.93-35.79,8.91a49.67,49.67,0,0,0-9.14,6.72,14.85,14.85,0,0,0-5.1,10.63c0,.23,0,.46-.07.68-.14,1.45-.78,2.77-2.35,2.36C38.07,91.23,37.39,90,37,89.56Z"/></g><text class="cls-1" transform="translate(96.87 104.55) rotate(-0.78)">J</text></svg>